<svg width="12" height="18" viewBox="0 0 12 18" fill="none" xmlns="http://www.w3.org/2000/svg">
<path fill-rule="evenodd" clip-rule="evenodd" d="M6 9C6 7.4467 7.2592 6.1875 8.8125 6.1875C10.3658 6.1875 11.625 7.4467 11.625 9C11.625 10.5533 10.3658 11.8125 8.8125 11.8125C7.2592 11.8125 6 10.5533 6 9Z" fill="#1ABCFE"/>
<path fill-rule="evenodd" clip-rule="evenodd" d="M0.375 14.625C0.375 13.0717 1.6342 11.8125 3.1875 11.8125H6V14.625C6 16.1783 4.7408 17.4375 3.1875 17.4375C1.6342 17.4375 0.375 16.1783 0.375 14.625Z" fill="#0ACF83"/>
<path fill-rule="evenodd" clip-rule="evenodd" d="M6 0.5625V6.1875H8.8125C10.3658 6.1875 11.625 4.9283 11.625 3.375C11.625 1.8217 10.3658 0.5625 8.8125 0.5625H6Z" fill="#FF7262"/>
<path fill-rule="evenodd" clip-rule="evenodd" d="M0.375 3.375C0.375 4.9283 1.6342 6.1875 3.1875 6.1875H6V0.5625H3.1875C1.6342 0.5625 0.375 1.8217 0.375 3.375Z" fill="#F24E1E"/>
<path fill-rule="evenodd" clip-rule="evenodd" d="M0.375 9C0.375 10.5533 1.6342 11.8125 3.1875 11.8125H6V6.1875H3.1875C1.6342 6.1875 0.375 7.4467 0.375 9Z" fill="#A259FF"/>
</svg>
