<svg width="18" height="18" viewBox="0 0 18 18" fill="none" xmlns="http://www.w3.org/2000/svg">
<path d="M9 0.25C4.16562 0.25 0.25 4.16562 0.25 9C0.25 12.8719 2.75469 16.1422 6.23281 17.3016C6.67031 17.3781 6.83437 17.1156 6.83437 16.8859C6.83437 16.6781 6.82344 15.9891 6.82344 15.2563C4.625 15.6609 4.05625 14.7203 3.88125 14.2281C3.78281 13.9766 3.35625 13.2 2.98438 12.9922C2.67812 12.8281 2.24063 12.4234 2.97344 12.4125C3.6625 12.4016 4.15469 13.0469 4.31875 13.3094C5.10625 14.6328 6.36406 14.2609 6.86719 14.0312C6.94375 13.4625 7.17344 13.0797 7.425 12.8609C5.47813 12.6422 3.44375 11.8875 3.44375 8.54062C3.44375 7.58906 3.78281 6.80156 4.34062 6.18906C4.25313 5.97031 3.94687 5.07344 4.42812 3.87031C4.42812 3.87031 5.16094 3.64063 6.83437 4.76719C7.53438 4.57031 8.27813 4.47187 9.02188 4.47187C9.76563 4.47187 10.5094 4.57031 11.2094 4.76719C12.8828 3.62969 13.6156 3.87031 13.6156 3.87031C14.0969 5.07344 13.7906 5.97031 13.7031 6.18906C14.2609 6.80156 14.6 7.57812 14.6 8.54062C14.6 11.8984 12.5547 12.6422 10.6078 12.8609C10.925 13.1344 11.1984 13.6594 11.1984 14.4797C11.1984 15.65 11.1875 16.5906 11.1875 16.8859C11.1875 17.1156 11.3516 17.3891 11.7891 17.3016C13.5261 16.7152 15.0355 15.5988 16.1048 14.1096C17.1741 12.6204 17.7495 10.8333 17.75 9C17.75 4.16562 13.8344 0.25 9 0.25Z" fill="#292929"/>
</svg>
