<svg id="parallel-logo" width="172" height="48" viewBox="0 0 172 48" fill="none" xmlns="http://www.w3.org/2000/svg">
<g filter="url(#filter0_dd_1894_485083)">
<rect x="12" width="32" height="32" rx="4" fill="white"/>
<path d="M21.6 6.55531C21.6 6.42691 21.7408 6.35419 21.8384 6.43218L22.8022 7.20264C22.8389 7.23196 22.8605 7.27749 22.8605 7.32576V22.9635C22.8605 23.0945 22.7146 23.1664 22.6179 23.0831L21.654 22.2534C21.6198 22.224 21.6 22.1801 21.6 22.1338V6.55531Z" fill="#FFC300"/>
<path d="M30.644 19.2882C30.6915 19.272 30.7435 19.2819 30.7825 19.3145L31.6201 20.015C31.7118 20.0916 31.686 20.2438 31.5748 20.2829L26.8162 21.9578C26.7201 21.9916 26.6206 21.9169 26.6206 21.8109L26.6206 20.8219C26.6206 20.7548 26.6619 20.6953 26.723 20.6745L30.644 19.2882Z" fill="#FFC300"/>
<path d="M24.1189 8.88336C24.1189 8.75496 24.2597 8.68224 24.3572 8.76023L25.3211 9.53068C25.3578 9.56001 25.3793 9.60553 25.3793 9.65381V25.2915C25.3793 25.4225 25.2335 25.4944 25.1368 25.4112L24.1729 24.5814C24.1387 24.552 24.1189 24.5081 24.1189 24.4618V8.88336Z" fill="#FFC300"/>
<path d="M33.2418 21.3819C33.2864 21.3665 33.3354 21.3741 33.3738 21.4025L34.3372 22.1133C34.4359 22.1861 34.4144 22.345 34.3003 22.3863L25.458 25.5915C25.4091 25.6092 25.355 25.599 25.3151 25.5647L24.3264 24.7136C24.2363 24.636 25.4909 24.0307 25.6018 23.9924L33.2418 21.3819Z" fill="#FFC300"/>
<path d="M25.3794 23.8374H25.231V24.1474H25.6018V23.9916L25.575 24.0011C25.4789 24.0349 25.3794 23.9602 25.3794 23.8542V23.8374Z" fill="#FFC300"/>
</g>
<path d="M58.18 8.8H59.36L65.26 23H63.78L61.94 18.56H55.56L53.74 23H52.24L58.18 8.8ZM61.62 17.46L58.76 10.44L55.86 17.46H61.62ZM71.6055 22.5C71.4988 22.54 71.3321 22.6133 71.1055 22.72C70.8788 22.8267 70.6055 22.92 70.2855 23C69.9655 23.08 69.6188 23.12 69.2455 23.12C68.8588 23.12 68.4921 23.0467 68.1455 22.9C67.8121 22.7533 67.5455 22.5333 67.3455 22.24C67.1455 21.9333 67.0455 21.56 67.0455 21.12V13.66H65.6055V12.58H67.0455V9.06H68.4055V12.58H70.8055V13.66H68.4055V20.74C68.4321 21.1133 68.5655 21.3933 68.8055 21.58C69.0588 21.7667 69.3455 21.86 69.6655 21.86C70.0388 21.86 70.3788 21.8 70.6855 21.68C70.9921 21.5467 71.1788 21.4533 71.2455 21.4L71.6055 22.5ZM77.5689 23.2C76.8222 23.2 76.1289 23.06 75.4889 22.78C74.8622 22.4867 74.3156 22.0933 73.8489 21.6C73.3956 21.0933 73.0422 20.52 72.7889 19.88C72.5356 19.2267 72.4089 18.54 72.4089 17.82C72.4089 17.0733 72.5356 16.38 72.7889 15.74C73.0422 15.0867 73.4022 14.5133 73.8689 14.02C74.3356 13.5133 74.8822 13.12 75.5089 12.84C76.1489 12.5467 76.8422 12.4 77.5889 12.4C78.3356 12.4 79.0222 12.5467 79.6489 12.84C80.2756 13.12 80.8222 13.5133 81.2889 14.02C81.7556 14.5133 82.1156 15.0867 82.3689 15.74C82.6222 16.38 82.7489 17.0733 82.7489 17.82C82.7489 18.54 82.6222 19.2267 82.3689 19.88C82.1156 20.52 81.7556 21.0933 81.2889 21.6C80.8356 22.0933 80.2889 22.4867 79.6489 22.78C79.0222 23.06 78.3289 23.2 77.5689 23.2ZM73.7889 17.84C73.7889 18.6133 73.9556 19.32 74.2889 19.96C74.6356 20.5867 75.0956 21.0867 75.6689 21.46C76.2422 21.82 76.8756 22 77.5689 22C78.2622 22 78.8956 21.8133 79.4689 21.44C80.0422 21.0667 80.5022 20.56 80.8489 19.92C81.1956 19.2667 81.3689 18.56 81.3689 17.8C81.3689 17.0267 81.1956 16.32 80.8489 15.68C80.5022 15.04 80.0422 14.5333 79.4689 14.16C78.8956 13.7867 78.2622 13.6 77.5689 13.6C76.8756 13.6 76.2422 13.7933 75.6689 14.18C75.1089 14.5667 74.6556 15.08 74.3089 15.72C73.9622 16.3467 73.7889 17.0533 73.7889 17.84ZM88.4434 23.2C87.5901 23.2 86.7968 23.06 86.0634 22.78C85.3301 22.5 84.6968 22.0733 84.1634 21.5L84.7234 20.54C85.3101 21.0867 85.8968 21.4867 86.4834 21.74C87.0834 21.98 87.7168 22.1 88.3834 22.1C89.1968 22.1 89.8568 21.94 90.3634 21.62C90.8701 21.2867 91.1234 20.8133 91.1234 20.2C91.1234 19.7867 90.9968 19.4733 90.7434 19.26C90.5034 19.0333 90.1501 18.8533 89.6834 18.72C89.2301 18.5733 88.6834 18.42 88.0434 18.26C87.3234 18.06 86.7168 17.8533 86.2234 17.64C85.7434 17.4133 85.3768 17.1333 85.1234 16.8C84.8834 16.4533 84.7634 16.0067 84.7634 15.46C84.7634 14.78 84.9301 14.22 85.2634 13.78C85.6101 13.3267 86.0768 12.9867 86.6634 12.76C87.2634 12.52 87.9301 12.4 88.6634 12.4C89.4634 12.4 90.1701 12.5267 90.7834 12.78C91.3968 13.0333 91.8968 13.3867 92.2834 13.84L91.6234 14.76C91.2501 14.3333 90.8034 14.02 90.2834 13.82C89.7768 13.6067 89.2101 13.5 88.5834 13.5C88.1568 13.5 87.7501 13.56 87.3634 13.68C86.9768 13.7867 86.6568 13.9733 86.4034 14.24C86.1634 14.4933 86.0434 14.8467 86.0434 15.3C86.0434 15.6733 86.1368 15.9667 86.3234 16.18C86.5101 16.38 86.7901 16.5533 87.1634 16.7C87.5368 16.8333 87.9968 16.98 88.5434 17.14C89.3301 17.3533 90.0168 17.5733 90.6034 17.8C91.1901 18.0133 91.6434 18.2933 91.9634 18.64C92.2834 18.9867 92.4434 19.4733 92.4434 20.1C92.4434 21.0733 92.0768 21.8333 91.3434 22.38C90.6101 22.9267 89.6434 23.2 88.4434 23.2Z" fill="#FFC300"/>
<path d="M99.48 23V8.8H105.5C106.153 8.8 106.753 8.94 107.3 9.22C107.86 9.48667 108.34 9.84667 108.74 10.3C109.14 10.74 109.453 11.2467 109.68 11.82C109.907 12.38 110.02 12.9467 110.02 13.52C110.02 14.12 109.913 14.7067 109.7 15.28C109.487 15.84 109.187 16.34 108.8 16.78C108.413 17.22 107.947 17.5733 107.4 17.84C106.853 18.1067 106.253 18.24 105.6 18.24H102.24V23H99.48ZM102.24 15.82H105.44C105.947 15.82 106.367 15.6133 106.7 15.2C107.047 14.7867 107.22 14.2267 107.22 13.52C107.22 13.16 107.167 12.84 107.06 12.56C106.953 12.2667 106.813 12.02 106.64 11.82C106.467 11.62 106.26 11.4733 106.02 11.38C105.793 11.2733 105.56 11.22 105.32 11.22H102.24V15.82ZM114.443 23.2C113.937 23.2 113.463 23.12 113.023 22.96C112.583 22.7867 112.203 22.5533 111.883 22.26C111.563 21.9533 111.31 21.6 111.123 21.2C110.95 20.8 110.863 20.36 110.863 19.88C110.863 19.3867 110.97 18.9333 111.183 18.52C111.41 18.0933 111.717 17.7333 112.103 17.44C112.503 17.1467 112.977 16.92 113.523 16.76C114.07 16.5867 114.67 16.5 115.323 16.5C115.79 16.5 116.243 16.54 116.683 16.62C117.137 16.7 117.537 16.8133 117.883 16.96V16.36C117.883 15.6667 117.683 15.1333 117.283 14.76C116.897 14.3867 116.317 14.2 115.543 14.2C114.983 14.2 114.437 14.3 113.903 14.5C113.37 14.7 112.823 14.9933 112.263 15.38L111.443 13.68C112.79 12.7867 114.243 12.34 115.803 12.34C117.31 12.34 118.477 12.7133 119.303 13.46C120.143 14.1933 120.563 15.26 120.563 16.66V19.92C120.563 20.2 120.61 20.4 120.703 20.52C120.81 20.64 120.977 20.7067 121.203 20.72V23C120.75 23.0933 120.357 23.14 120.023 23.14C119.517 23.14 119.123 23.0267 118.843 22.8C118.577 22.5733 118.41 22.2733 118.343 21.9L118.283 21.32C117.817 21.9333 117.25 22.4 116.583 22.72C115.917 23.04 115.203 23.2 114.443 23.2ZM115.203 21.24C115.657 21.24 116.083 21.16 116.483 21C116.897 20.84 117.217 20.6267 117.443 20.36C117.737 20.1333 117.883 19.88 117.883 19.6V18.4C117.563 18.28 117.217 18.1867 116.843 18.12C116.47 18.04 116.11 18 115.763 18C115.07 18 114.503 18.16 114.063 18.48C113.623 18.7867 113.403 19.18 113.403 19.66C113.403 20.1133 113.577 20.4933 113.923 20.8C114.27 21.0933 114.697 21.24 115.203 21.24ZM129.308 14.84C128.494 14.8533 127.768 15.0133 127.128 15.32C126.488 15.6133 126.028 16.06 125.748 16.66V23H123.068V12.52H125.528V14.76C125.714 14.4 125.934 14.08 126.188 13.8C126.441 13.5067 126.714 13.2533 127.008 13.04C127.301 12.8267 127.594 12.6667 127.888 12.56C128.194 12.44 128.488 12.38 128.768 12.38C128.914 12.38 129.021 12.38 129.088 12.38C129.168 12.38 129.241 12.3867 129.308 12.4V14.84ZM133.525 23.2C133.019 23.2 132.545 23.12 132.105 22.96C131.665 22.7867 131.285 22.5533 130.965 22.26C130.645 21.9533 130.392 21.6 130.205 21.2C130.032 20.8 129.945 20.36 129.945 19.88C129.945 19.3867 130.052 18.9333 130.265 18.52C130.492 18.0933 130.799 17.7333 131.185 17.44C131.585 17.1467 132.059 16.92 132.605 16.76C133.152 16.5867 133.752 16.5 134.405 16.5C134.872 16.5 135.325 16.54 135.765 16.62C136.219 16.7 136.619 16.8133 136.965 16.96V16.36C136.965 15.6667 136.765 15.1333 136.365 14.76C135.979 14.3867 135.399 14.2 134.625 14.2C134.065 14.2 133.519 14.3 132.985 14.5C132.452 14.7 131.905 14.9933 131.345 15.38L130.525 13.68C131.872 12.7867 133.325 12.34 134.885 12.34C136.392 12.34 137.559 12.7133 138.385 13.46C139.225 14.1933 139.645 15.26 139.645 16.66V19.92C139.645 20.2 139.692 20.4 139.785 20.52C139.892 20.64 140.059 20.7067 140.285 20.72V23C139.832 23.0933 139.439 23.14 139.105 23.14C138.599 23.14 138.205 23.0267 137.925 22.8C137.659 22.5733 137.492 22.2733 137.425 21.9L137.365 21.32C136.899 21.9333 136.332 22.4 135.665 22.72C134.999 23.04 134.285 23.2 133.525 23.2ZM134.285 21.24C134.739 21.24 135.165 21.16 135.565 21C135.979 20.84 136.299 20.6267 136.525 20.36C136.819 20.1333 136.965 19.88 136.965 19.6V18.4C136.645 18.28 136.299 18.1867 135.925 18.12C135.552 18.04 135.192 18 134.845 18C134.152 18 133.585 18.16 133.145 18.48C132.705 18.7867 132.485 19.18 132.485 19.66C132.485 20.1133 132.659 20.4933 133.005 20.8C133.352 21.0933 133.779 21.24 134.285 21.24ZM142.13 8.4H144.81V19.64C144.81 20.0267 144.903 20.3267 145.09 20.54C145.276 20.7533 145.543 20.86 145.89 20.86C146.05 20.86 146.223 20.8333 146.41 20.78C146.61 20.7267 146.796 20.66 146.97 20.58L147.33 22.62C146.97 22.7933 146.55 22.9267 146.07 23.02C145.59 23.1133 145.156 23.16 144.77 23.16C143.93 23.16 143.276 22.94 142.81 22.5C142.356 22.0467 142.13 21.4067 142.13 20.58V8.4ZM148.477 8.4H151.157V19.64C151.157 20.0267 151.251 20.3267 151.437 20.54C151.624 20.7533 151.891 20.86 152.237 20.86C152.397 20.86 152.571 20.8333 152.757 20.78C152.957 20.7267 153.144 20.66 153.317 20.58L153.677 22.62C153.317 22.7933 152.897 22.9267 152.417 23.02C151.937 23.1133 151.504 23.16 151.117 23.16C150.277 23.16 149.624 22.94 149.157 22.5C148.704 22.0467 148.477 21.4067 148.477 20.58V8.4ZM159.705 23.2C158.865 23.2 158.105 23.06 157.425 22.78C156.745 22.4867 156.165 22.0933 155.685 21.6C155.205 21.1067 154.832 20.5333 154.565 19.88C154.312 19.2267 154.185 18.54 154.185 17.82C154.185 17.0733 154.312 16.3733 154.565 15.72C154.818 15.0533 155.185 14.4733 155.665 13.98C156.145 13.4733 156.725 13.0733 157.405 12.78C158.098 12.4867 158.872 12.34 159.725 12.34C160.578 12.34 161.338 12.4867 162.005 12.78C162.685 13.0733 163.258 13.4667 163.725 13.96C164.205 14.4533 164.565 15.0267 164.805 15.68C165.058 16.3333 165.185 17.0133 165.185 17.72C165.185 17.8933 165.178 18.06 165.165 18.22C165.165 18.38 165.152 18.5133 165.125 18.62H157.025C157.065 19.0333 157.165 19.4 157.325 19.72C157.485 20.04 157.692 20.3133 157.945 20.54C158.198 20.7667 158.485 20.94 158.805 21.06C159.125 21.18 159.458 21.24 159.805 21.24C160.338 21.24 160.838 21.1133 161.305 20.86C161.785 20.5933 162.112 20.2467 162.285 19.82L164.585 20.46C164.198 21.26 163.578 21.92 162.725 22.44C161.885 22.9467 160.878 23.2 159.705 23.2ZM162.425 16.88C162.358 16.0933 162.065 15.4667 161.545 15C161.038 14.52 160.418 14.28 159.685 14.28C159.325 14.28 158.985 14.3467 158.665 14.48C158.358 14.6 158.085 14.7733 157.845 15C157.605 15.2267 157.405 15.5 157.245 15.82C157.098 16.14 157.012 16.4933 156.985 16.88H162.425ZM166.798 8.4H169.478V19.64C169.478 20.0267 169.571 20.3267 169.758 20.54C169.944 20.7533 170.211 20.86 170.558 20.86C170.718 20.86 170.891 20.8333 171.078 20.78C171.278 20.7267 171.464 20.66 171.638 20.58L171.998 22.62C171.638 22.7933 171.218 22.9267 170.738 23.02C170.258 23.1133 169.824 23.16 169.438 23.16C168.598 23.16 167.944 22.94 167.478 22.5C167.024 22.0467 166.798 21.4067 166.798 20.58V8.4Z" fill="#FFC300"/>
<defs>
<filter id="filter0_dd_1894_485083" x="0" y="0" width="56" height="56" filterUnits="userSpaceOnUse" color-interpolation-filters="sRGB">
<feFlood flood-opacity="0" result="BackgroundImageFix"/>
<feColorMatrix in="SourceAlpha" type="matrix" values="0 0 0 0 0 0 0 0 0 0 0 0 0 0 0 0 0 0 127 0" result="hardAlpha"/>
<feMorphology radius="2" operator="erode" in="SourceAlpha" result="effect1_dropShadow_1894_485083"/>
<feOffset dy="4"/>
<feGaussianBlur stdDeviation="3"/>
<feColorMatrix type="matrix" values="0 0 0 0 0.0627451 0 0 0 0 0.0941176 0 0 0 0 0.156863 0 0 0 0.02 0"/>
<feBlend mode="normal" in2="BackgroundImageFix" result="effect1_dropShadow_1894_485083"/>
<feColorMatrix in="SourceAlpha" type="matrix" values="0 0 0 0 0 0 0 0 0 0 0 0 0 0 0 0 0 0 127 0" result="hardAlpha"/>
<feMorphology radius="4" operator="erode" in="SourceAlpha" result="effect2_dropShadow_1894_485083"/>
<feOffset dy="12"/>
<feGaussianBlur stdDeviation="8"/>
<feColorMatrix type="matrix" values="0 0 0 0 0.0627451 0 0 0 0 0.0941176 0 0 0 0 0.156863 0 0 0 0.06 0"/>
<feBlend mode="normal" in2="effect1_dropShadow_1894_485083" result="effect2_dropShadow_1894_485083"/>
<feBlend mode="normal" in="SourceGraphic" in2="effect2_dropShadow_1894_485083" result="shape"/>
</filter>
</defs>
</svg>
