<svg width="40" height="40" viewBox="0 0 40 40" fill="none" xmlns="http://www.w3.org/2000/svg">
<rect width="40" height="40" rx="4" fill="#FFC300"/>
<path d="M12 8.19411C12 8.03361 12.176 7.94271 12.298 8.0402L13.5028 9.00327C13.5487 9.03992 13.5756 9.09683 13.5756 9.15718V28.7043C13.5756 28.8681 13.3933 28.958 13.2724 28.8539L12.0675 27.8167C12.0248 27.7799 12 27.7251 12 27.6672V8.19411Z" fill="#FCFCFD"/>
<path d="M23.305 24.1102C23.3644 24.09 23.4294 24.1024 23.4782 24.1431L24.5252 25.0187C24.6397 25.1145 24.6075 25.3047 24.4685 25.3536L18.5202 27.4472C18.4001 27.4895 18.2757 27.3961 18.2757 27.2636L18.2757 26.0274C18.2757 25.9435 18.3274 25.8691 18.4037 25.8431L23.305 24.1102Z" fill="#FCFCFD"/>
<path d="M15.1486 11.1042C15.1486 10.9437 15.3246 10.8528 15.4466 10.9503L16.6514 11.9133C16.6973 11.95 16.7242 12.0069 16.7242 12.0672V31.6144C16.7242 31.7781 16.5419 31.868 16.421 31.7639L15.2161 30.7268C15.1734 30.69 15.1486 30.6351 15.1486 30.5772V11.1042Z" fill="#FCFCFD"/>
<path d="M26.5522 26.7274C26.608 26.7081 26.6693 26.7176 26.7173 26.7531L27.9215 27.6416C28.0448 27.7325 28.0179 27.9312 27.8753 27.9829L16.8224 31.9893C16.7614 32.0114 16.6938 31.9987 16.6439 31.9558L15.408 30.8919C15.2953 30.795 16.8637 30.0384 17.0022 29.9905L26.5522 26.7274Z" fill="#FCFCFD"/>
<path d="M16.7242 29.7968H16.5388V30.1843H17.0022V29.9895L16.9687 30.0013C16.8486 30.0436 16.7242 29.9502 16.7242 29.8177V29.7968Z" fill="#FCFCFD"/>
</svg>
