<svg width="40" height="40" fill="none" xmlns="http://www.w3.org/2000/svg"><rect width="40" height="40" rx="4" fill="#ff6d43"/><path d="M12 8.194c0-.16.176-.251.298-.154l1.205.963a.197.197 0 01.073.154v19.547c0 .164-.183.254-.304.15l-1.204-1.037a.197.197 0 01-.068-.15V8.194zM23.305 24.11a.18.18 0 01.173.033l1.047.876c.115.096.083.286-.056.335l-5.949 2.093c-.12.043-.244-.05-.244-.183v-1.237c0-.084.051-.158.128-.184l4.901-1.733zM15.149 11.104c0-.16.176-.251.298-.154l1.204.963a.197.197 0 01.073.154v19.547c0 .164-.182.254-.303.15l-1.205-1.037a.198.198 0 01-.067-.15V11.104z" fill="#FCFCFD"/><path d="M26.552 26.727a.179.179 0 01.165.026l1.205.889c.123.09.096.29-.047.34L16.822 31.99a.18.18 0 01-.178-.033l-1.236-1.064c-.113-.097 1.456-.854 1.594-.901l9.55-3.264z" fill="#FCFCFD"/><path d="M16.724 29.797h-.185v.387h.463v-.195l-.033.012c-.12.043-.245-.05-.245-.183v-.021z" fill="#FCFCFD"/></svg>