<svg version="1.1" id="parallel-logo" xmlns="http://www.w3.org/2000/svg" x="0" y="0" viewBox="0 0 142 48"
	xml:space="preserve">
	<path fill="#ff6d43" class="prefix__st1"
		d="M15.3 0h24c2.2 0 4 1.8 4 4v24c0 2.2-1.8 4-4 4h-24c-2.2 0-4-1.8-4-4V4c0-2.2 1.8-4 4-4z" />
	<path fill="#fff"
		d="M20.9 6.6c0-.1.1-.2.2-.1l1 .8.1.1V23c0 .1-.1.2-.2.1l-1-.8-.1-.1V6.6zM29.9 19.3h.1l.8.7c.1.1.1.2 0 .3L26.1 22c-.1 0-.2 0-.2-.1v-1c0-.1 0-.1.1-.1l3.9-1.5zM23.4 8.9c0-.1.1-.2.2-.1l1 .8.1.1v15.6c0 .1-.1.2-.2.1l-1-.8-.1-.1V8.9z" />
	<path fill="#fff" d="M32.5 21.4h.1l1 .7c.1.1.1.2 0 .3l-8.8 3.2h-.1l-1-.9c-.1-.1 1.2-.7 1.3-.7l7.5-2.6z" />
	<path fill="currentcolor"
		d="M24.7 23.8h-.1v.3h.4V24c-.2 0-.3 0-.3-.2zM51.3 23.1V8.9h6c.7 0 1.3.1 1.8.4.6.3 1 .6 1.4 1.1.4.4.7.9.9 1.5.2.6.3 1.1.3 1.7 0 .6-.1 1.2-.3 1.8-.2.6-.5 1.1-.9 1.5-.4.4-.9.8-1.4 1.1-.5.3-1.1.4-1.8.4h-3.4v4.8h-2.6zm2.8-7.2h3.2c.5 0 .9-.2 1.3-.6.3-.4.5-1 .5-1.7 0-.4-.1-.7-.2-1-.1-.3-.2-.5-.4-.7-.2-.2-.4-.3-.6-.4-.2-.1-.5-.2-.7-.2h-3.1v4.6zm12.2 7.4c-.5 0-1-.1-1.4-.2-.4-.2-.8-.4-1.1-.7-.3-.3-.6-.7-.8-1.1-.2-.4-.3-.8-.3-1.3s.1-.9.3-1.4c.2-.4.5-.8.9-1.1.4-.3.9-.5 1.4-.7.5-.2 1.1-.3 1.8-.3.5 0 .9 0 1.4.1.5.1.9.2 1.2.3v-.6c0-.7-.2-1.2-.6-1.6-.4-.4-1-.6-1.7-.6-.6 0-1.1.1-1.6.3-.5.2-1.1.5-1.6.9l-.8-1.7c1.3-.9 2.8-1.3 4.4-1.3 1.5 0 2.7.4 3.5 1.1.8.7 1.3 1.8 1.3 3.2V20c0 .3 0 .5.1.6.1.1.3.2.5.2v2.3c-.5.1-.8.1-1.2.1-.5 0-.9-.1-1.2-.3-.3-.2-.4-.5-.5-.9l-.1-.6c-.5.6-1 1.1-1.7 1.4-.7.3-1.5.5-2.2.5zm.7-2c.5 0 .9-.1 1.3-.2.4-.2.7-.4 1-.6.3-.2.4-.5.4-.8v-1.2c-.3-.1-.7-.2-1-.3-.4-.1-.7-.1-1.1-.1-.7 0-1.3.2-1.7.5-.4.3-.7.7-.7 1.2s.2.8.5 1.1c.4.3.8.4 1.3.4zm14.1-6.4c-.8 0-1.5.2-2.2.5-.6.3-1.1.7-1.4 1.3V23h-2.7V12.6h2.5v2.2c.2-.4.4-.7.7-1l.8-.8c.3-.2.6-.4.9-.5.3-.1.6-.2.9-.2h.5v2.6zm4.3 8.4c-.5 0-1-.1-1.4-.2-.4-.2-.8-.4-1.1-.7-.3-.3-.6-.7-.8-1.1-.2-.4-.3-.8-.3-1.3s.1-.9.3-1.4c.2-.4.5-.8.9-1.1.4-.3.9-.5 1.4-.7.5-.2 1.1-.3 1.8-.3.5 0 .9 0 1.4.1.5.1.9.2 1.2.3v-.6c0-.7-.2-1.2-.6-1.6-.4-.4-1-.6-1.7-.6-.6 0-1.1.1-1.6.3-.5.2-1.1.5-1.6.9l-.8-1.7c1.3-.9 2.8-1.3 4.4-1.3 1.5 0 2.7.4 3.5 1.1.8.7 1.3 1.8 1.3 3.2V20c0 .3 0 .5.1.6.1.1.3.2.5.2v2.3c-.5.1-.8.1-1.2.1-.5 0-.9-.1-1.2-.3-.3-.2-.4-.5-.5-.9l-.1-.6c-.5.6-1 1.1-1.7 1.4-.8.3-1.5.5-2.2.5zm.7-2c.5 0 .9-.1 1.3-.2.4-.2.7-.4 1-.6.3-.2.4-.5.4-.8v-1.2c-.3-.1-.7-.2-1-.3-.4-.1-.7-.1-1.1-.1-.7 0-1.3.2-1.7.5-.4.3-.7.7-.7 1.2s.2.8.5 1.1c.4.3.8.4 1.3.4zM94 8.5h2.7v11.2c0 .4.1.7.3.9.2.2.5.3.8.3.2 0 .3 0 .5-.1s.4-.1.6-.2l.4 2c-.4.2-.8.3-1.3.4-.5.1-.9.1-1.3.1-.8 0-1.5-.2-2-.7-.5-.5-.7-1.1-.7-1.9v-12zm6.3 0h2.7v11.2c0 .4.1.7.3.9.2.2.5.3.8.3.2 0 .3 0 .5-.1s.4-.1.6-.2l.4 2c-.4.2-.8.3-1.3.4-.5.1-.9.1-1.3.1-.8 0-1.5-.2-2-.7-.5-.5-.7-1.1-.7-1.9v-12zm11.2 14.8c-.8 0-1.6-.1-2.3-.4-.7-.3-1.3-.7-1.7-1.2s-.9-1.1-1.1-1.7c-.3-.7-.4-1.3-.4-2.1 0-.7.1-1.4.4-2.1.3-.7.6-1.2 1.1-1.7.5-.5 1.1-.9 1.7-1.2.7-.3 1.5-.4 2.3-.4.9 0 1.6.1 2.3.4.7.3 1.3.7 1.7 1.2.5.5.8 1.1 1.1 1.7.3.7.4 1.3.4 2v.9h-8.1c0 .4.1.8.3 1.1.2.3.4.6.6.8.3.2.5.4.9.5.3.1.7.2 1 .2.5 0 1-.1 1.5-.4.5-.3.8-.6 1-1l2.3.6c-.4.8-1 1.5-1.9 2-.9.5-1.9.8-3.1.8zm2.8-6.3c-.1-.8-.4-1.4-.9-1.9s-1.1-.7-1.9-.7c-.4 0-.7.1-1 .2-.3.1-.6.3-.8.5s-.4.5-.6.8c-.1.3-.2.7-.3 1.1h5.5zm4.3-8.5h2.7v11.2c0 .4.1.7.3.9.2.2.5.3.8.3.2 0 .3 0 .5-.1s.4-.1.6-.2l.4 2c-.4.2-.8.3-1.3.4-.5.1-.9.1-1.3.1-.8 0-1.5-.2-2-.7-.5-.5-.7-1.1-.7-1.9v-12z" />
</svg>
