<svg width="63" height="74" viewBox="0 0 63 74" fill="none" xmlns="http://www.w3.org/2000/svg">
<path d="M46.4744 0.988925L46.0904 9.29059C46.0785 9.75677 46.6365 10.0438 47.0228 9.75677L50.3876 7.30416L53.2445 9.44445C53.6165 9.68329 54.1149 9.44445 54.1387 9.01272L53.8168 0.568675L58.052 0.258654C60.2506 0.113978 62.125 1.80187 62.125 3.93068V70.073C62.125 72.1789 60.2983 73.853 58.114 73.7451L6.91735 71.5451C4.93092 71.4624 3.32842 69.9192 3.26641 67.9925L0.881737 7.36387C0.757734 5.33151 2.36024 3.58391 4.47067 3.47598L46.4386 0.929217L46.4744 0.988925ZM36.7139 28.7369C36.7139 30.1722 46.7629 29.4672 48.1269 28.4866C48.1269 18.69 42.6613 13.5115 32.6766 13.5115C22.6658 13.5115 17.1023 18.7864 17.1023 26.6563C17.1023 40.2789 36.1797 40.5177 36.1797 47.9582C36.1797 50.1123 35.1615 51.3317 32.8388 51.3317C29.784 51.3317 28.5416 49.8367 28.7038 44.7179C28.7038 43.6179 17.1023 43.2459 16.7184 44.7179C15.8623 57.0614 23.8104 60.6369 32.927 60.6369C41.8076 60.6369 48.7374 56.0808 48.7374 47.8388C48.7374 33.2357 29.3381 33.6284 29.3381 26.406C29.3381 23.439 31.6369 23.044 32.927 23.044C34.3674 23.044 36.9023 23.2599 36.7163 28.7622L36.7139 28.7369Z" fill="#FF4785"/>
</svg>
